<mxfile host="65bd71144e">
    <diagram id="Nj14HKG1c-pIYOOqrq1b" name="Page-1">
        <mxGraphModel dx="726" dy="789" grid="1" gridSize="10" guides="1" tooltips="1" connect="1" arrows="1" fold="1" page="1" pageScale="1" pageWidth="850" pageHeight="1100" math="0" shadow="0">
            <root>
                <mxCell id="0"/>
                <mxCell id="1" parent="0"/>
                <mxCell id="41" value="" style="html=1;align=center;verticalAlign=top;rounded=1;absoluteArcSize=1;arcSize=20;dashed=1;" vertex="1" parent="1">
                    <mxGeometry x="160" y="700" width="480" height="190" as="geometry"/>
                </mxCell>
                <mxCell id="52" value="" style="html=1;align=center;verticalAlign=top;rounded=1;absoluteArcSize=1;arcSize=20;dashed=1;" vertex="1" parent="1">
                    <mxGeometry x="200" y="920" width="410" height="60" as="geometry"/>
                </mxCell>
                <mxCell id="18" value="" style="html=1;align=center;verticalAlign=top;rounded=1;absoluteArcSize=1;arcSize=20;dashed=1;" vertex="1" parent="1">
                    <mxGeometry x="200" y="580" width="410" height="110" as="geometry"/>
                </mxCell>
                <mxCell id="39" value="" style="html=1;align=center;verticalAlign=top;rounded=1;absoluteArcSize=1;arcSize=20;dashed=1;" vertex="1" parent="1">
                    <mxGeometry x="200" y="740" width="410" height="110" as="geometry"/>
                </mxCell>
                <mxCell id="56" value="" style="html=1;points=[];perimeter=orthogonalPerimeter;" vertex="1" parent="1">
                    <mxGeometry x="395" y="620" width="10" height="360" as="geometry"/>
                </mxCell>
                <mxCell id="5" value="Possible instances(1~81)" style="shape=umlLifeline;perimeter=lifelinePerimeter;whiteSpace=wrap;html=1;container=1;collapsible=0;recursiveResize=0;outlineConnect=0;" vertex="1" parent="1">
                    <mxGeometry x="350" y="530" width="100" height="540" as="geometry"/>
                </mxCell>
                <mxCell id="7" value="Grid instance" style="shape=umlLifeline;perimeter=lifelinePerimeter;whiteSpace=wrap;html=1;container=1;collapsible=0;recursiveResize=0;outlineConnect=0;" vertex="1" parent="1">
                    <mxGeometry x="200" y="530" width="100" height="540" as="geometry"/>
                </mxCell>
                <mxCell id="8" value="" style="html=1;points=[];perimeter=orthogonalPerimeter;" vertex="1" parent="7">
                    <mxGeometry x="45" y="70" width="10" height="400" as="geometry"/>
                </mxCell>
                <mxCell id="9" value="OS" style="shape=umlLifeline;perimeter=lifelinePerimeter;whiteSpace=wrap;html=1;container=1;collapsible=0;recursiveResize=0;outlineConnect=0;" vertex="1" parent="1">
                    <mxGeometry x="500" y="530" width="100" height="540" as="geometry"/>
                </mxCell>
                <mxCell id="10" value="" style="html=1;points=[];perimeter=orthogonalPerimeter;fillColor=#808080;" vertex="1" parent="9">
                    <mxGeometry x="45" y="60" width="10" height="480" as="geometry"/>
                </mxCell>
                <mxCell id="12" style="edgeStyle=orthogonalEdgeStyle;rounded=0;orthogonalLoop=1;jettySize=auto;html=1;entryX=0.413;entryY=0.009;entryDx=0;entryDy=0;entryPerimeter=0;" edge="1" parent="1" source="10" target="8">
                    <mxGeometry relative="1" as="geometry">
                        <Array as="points">
                            <mxPoint x="249" y="590"/>
                        </Array>
                    </mxGeometry>
                </mxCell>
                <mxCell id="13" value="Init an instance" style="edgeLabel;html=1;align=center;verticalAlign=middle;resizable=0;points=[];" vertex="1" connectable="0" parent="12">
                    <mxGeometry x="0.1341" y="-1" relative="1" as="geometry">
                        <mxPoint as="offset"/>
                    </mxGeometry>
                </mxCell>
                <mxCell id="14" style="edgeStyle=orthogonalEdgeStyle;rounded=0;orthogonalLoop=1;jettySize=auto;html=1;exitX=0.992;exitY=0.032;exitDx=0;exitDy=0;exitPerimeter=0;" edge="1" parent="1" source="8">
                    <mxGeometry relative="1" as="geometry">
                        <mxPoint x="550" y="607" as="targetPoint"/>
                        <Array as="points">
                            <mxPoint x="255" y="607"/>
                        </Array>
                    </mxGeometry>
                </mxCell>
                <mxCell id="23" value="Text" style="edgeLabel;html=1;align=center;verticalAlign=middle;resizable=0;points=[];" vertex="1" connectable="0" parent="14">
                    <mxGeometry x="0.112" relative="1" as="geometry">
                        <mxPoint as="offset"/>
                    </mxGeometry>
                </mxCell>
                <mxCell id="24" value="request to possible instances" style="edgeLabel;html=1;align=center;verticalAlign=middle;resizable=0;points=[];" vertex="1" connectable="0" parent="14">
                    <mxGeometry x="0.1212" relative="1" as="geometry">
                        <mxPoint as="offset"/>
                    </mxGeometry>
                </mxCell>
                <mxCell id="19" value="" style="html=1;points=[];perimeter=orthogonalPerimeter;fillColor=#808080;" vertex="1" parent="1">
                    <mxGeometry x="395" y="620" width="10" height="10" as="geometry"/>
                </mxCell>
                <mxCell id="20" value="" style="html=1;points=[];perimeter=orthogonalPerimeter;fillColor=#808080;" vertex="1" parent="1">
                    <mxGeometry x="395" y="640" width="10" height="10" as="geometry"/>
                </mxCell>
                <mxCell id="27" value="Link to" style="edgeStyle=orthogonalEdgeStyle;rounded=0;orthogonalLoop=1;jettySize=auto;html=1;" edge="1" parent="1" source="21">
                    <mxGeometry relative="1" as="geometry">
                        <mxPoint x="255" y="665" as="targetPoint"/>
                        <Array as="points">
                            <mxPoint x="255" y="665"/>
                        </Array>
                    </mxGeometry>
                </mxCell>
                <mxCell id="21" value="" style="html=1;points=[];perimeter=orthogonalPerimeter;fillColor=#808080;" vertex="1" parent="1">
                    <mxGeometry x="395" y="660" width="10" height="10" as="geometry"/>
                </mxCell>
                <mxCell id="22" value="Initiate a grid and possible instances" style="text;html=1;align=center;verticalAlign=middle;resizable=0;points=[];autosize=1;strokeColor=none;" vertex="1" parent="1">
                    <mxGeometry x="285" y="670" width="210" height="20" as="geometry"/>
                </mxCell>
                <mxCell id="25" style="edgeStyle=orthogonalEdgeStyle;rounded=0;orthogonalLoop=1;jettySize=auto;html=1;entryX=1.054;entryY=0.502;entryDx=0;entryDy=0;entryPerimeter=0;" edge="1" parent="1" source="10" target="19">
                    <mxGeometry relative="1" as="geometry">
                        <Array as="points">
                            <mxPoint x="500" y="625"/>
                            <mxPoint x="500" y="625"/>
                        </Array>
                    </mxGeometry>
                </mxCell>
                <mxCell id="26" value="Init possible instance" style="edgeLabel;html=1;align=center;verticalAlign=middle;resizable=0;points=[];" vertex="1" connectable="0" parent="25">
                    <mxGeometry x="-0.2183" y="1" relative="1" as="geometry">
                        <mxPoint x="-11" y="-1" as="offset"/>
                    </mxGeometry>
                </mxCell>
                <mxCell id="28" value="Send a number from input array" style="edgeStyle=orthogonalEdgeStyle;rounded=0;orthogonalLoop=1;jettySize=auto;html=1;" edge="1" parent="1" source="10" target="7">
                    <mxGeometry relative="1" as="geometry">
                        <Array as="points">
                            <mxPoint x="470" y="730"/>
                            <mxPoint x="470" y="730"/>
                        </Array>
                    </mxGeometry>
                </mxCell>
                <mxCell id="36" value="Done" style="edgeStyle=orthogonalEdgeStyle;rounded=0;orthogonalLoop=1;jettySize=auto;html=1;" edge="1" parent="1" source="29">
                    <mxGeometry relative="1" as="geometry">
                        <mxPoint x="250" y="770" as="targetPoint"/>
                        <Array as="points">
                            <mxPoint x="360" y="770"/>
                            <mxPoint x="360" y="770"/>
                        </Array>
                    </mxGeometry>
                </mxCell>
                <mxCell id="29" value="" style="html=1;points=[];perimeter=orthogonalPerimeter;fillColor=#808080;" vertex="1" parent="1">
                    <mxGeometry x="395" y="750" width="10" height="30" as="geometry"/>
                </mxCell>
                <mxCell id="30" value="eliminate" style="edgeStyle=orthogonalEdgeStyle;rounded=0;orthogonalLoop=1;jettySize=auto;html=1;" edge="1" parent="1" source="8" target="29">
                    <mxGeometry relative="1" as="geometry">
                        <Array as="points">
                            <mxPoint x="290" y="755"/>
                            <mxPoint x="290" y="755"/>
                        </Array>
                    </mxGeometry>
                </mxCell>
                <mxCell id="31" value="" style="html=1;points=[];perimeter=orthogonalPerimeter;fillColor=#808080;" vertex="1" parent="1">
                    <mxGeometry x="395" y="790" width="10" height="30" as="geometry"/>
                </mxCell>
                <mxCell id="37" value="eliminate" style="edgeStyle=orthogonalEdgeStyle;rounded=0;orthogonalLoop=1;jettySize=auto;html=1;" edge="1" parent="1" source="8" target="31">
                    <mxGeometry relative="1" as="geometry">
                        <Array as="points">
                            <mxPoint x="290" y="795"/>
                            <mxPoint x="290" y="795"/>
                        </Array>
                    </mxGeometry>
                </mxCell>
                <mxCell id="38" value="Done" style="edgeStyle=orthogonalEdgeStyle;rounded=0;orthogonalLoop=1;jettySize=auto;html=1;" edge="1" parent="1">
                    <mxGeometry relative="1" as="geometry">
                        <mxPoint x="395" y="809.9955172413793" as="sourcePoint"/>
                        <mxPoint x="250.0000000000001" y="810.0299999999997" as="targetPoint"/>
                        <Array as="points">
                            <mxPoint x="360" y="810.03"/>
                            <mxPoint x="360" y="810.03"/>
                        </Array>
                    </mxGeometry>
                </mxCell>
                <mxCell id="40" value="Constraint propagation" style="text;html=1;align=center;verticalAlign=middle;resizable=0;points=[];autosize=1;strokeColor=none;" vertex="1" parent="1">
                    <mxGeometry x="330" y="830" width="140" height="20" as="geometry"/>
                </mxCell>
                <mxCell id="42" value="Iterate to the last number in the array or only 1 possible as true in all squares" style="text;html=1;align=center;verticalAlign=middle;resizable=0;points=[];autosize=1;strokeColor=none;" vertex="1" parent="1">
                    <mxGeometry x="190" y="870" width="420" height="20" as="geometry"/>
                </mxCell>
                <mxCell id="43" value="Request to print" style="edgeStyle=orthogonalEdgeStyle;rounded=0;orthogonalLoop=1;jettySize=auto;html=1;" edge="1" parent="1" source="8">
                    <mxGeometry relative="1" as="geometry">
                        <mxPoint x="545" y="860" as="targetPoint"/>
                        <Array as="points">
                            <mxPoint x="545" y="860"/>
                        </Array>
                    </mxGeometry>
                </mxCell>
                <mxCell id="44" value="Request to deconstruct" style="edgeStyle=orthogonalEdgeStyle;rounded=0;orthogonalLoop=1;jettySize=auto;html=1;" edge="1" parent="1" source="10">
                    <mxGeometry relative="1" as="geometry">
                        <mxPoint x="254" y="908" as="targetPoint"/>
                        <Array as="points">
                            <mxPoint x="470" y="908"/>
                            <mxPoint x="470" y="908"/>
                        </Array>
                    </mxGeometry>
                </mxCell>
                <mxCell id="47" value="" style="edgeStyle=orthogonalEdgeStyle;rounded=0;orthogonalLoop=1;jettySize=auto;html=1;" edge="1" parent="1" source="46" target="42">
                    <mxGeometry relative="1" as="geometry"/>
                </mxCell>
                <mxCell id="46" value="" style="html=1;points=[];perimeter=orthogonalPerimeter;fillColor=#808080;" vertex="1" parent="1">
                    <mxGeometry x="395" y="920" width="10" height="10" as="geometry"/>
                </mxCell>
                <mxCell id="49" value="Request to deconstruct" style="edgeStyle=orthogonalEdgeStyle;rounded=0;orthogonalLoop=1;jettySize=auto;html=1;entryX=0.123;entryY=0.875;entryDx=0;entryDy=0;entryPerimeter=0;" edge="1" parent="1" source="8" target="46">
                    <mxGeometry relative="1" as="geometry">
                        <Array as="points">
                            <mxPoint x="300" y="929"/>
                            <mxPoint x="300" y="929"/>
                        </Array>
                    </mxGeometry>
                </mxCell>
                <mxCell id="50" value="" style="html=1;points=[];perimeter=orthogonalPerimeter;fillColor=#808080;" vertex="1" parent="1">
                    <mxGeometry x="395" y="940" width="10" height="10" as="geometry"/>
                </mxCell>
                <mxCell id="51" value="Request to deconstruct" style="edgeStyle=orthogonalEdgeStyle;rounded=0;orthogonalLoop=1;jettySize=auto;html=1;entryX=0.123;entryY=0.875;entryDx=0;entryDy=0;entryPerimeter=0;" edge="1" parent="1">
                    <mxGeometry relative="1" as="geometry">
                        <mxPoint x="253.77000000000012" y="944.91" as="sourcePoint"/>
                        <mxPoint x="395" y="944.6600000000002" as="targetPoint"/>
                        <Array as="points">
                            <mxPoint x="298.77" y="944.91"/>
                            <mxPoint x="298.77" y="944.91"/>
                        </Array>
                    </mxGeometry>
                </mxCell>
                <mxCell id="53" value="Deconstruct all possible instances" style="text;html=1;align=center;verticalAlign=middle;resizable=0;points=[];autosize=1;strokeColor=none;" vertex="1" parent="1">
                    <mxGeometry x="300" y="960" width="200" height="20" as="geometry"/>
                </mxCell>
                <mxCell id="54" value="Return back memory" style="edgeStyle=orthogonalEdgeStyle;rounded=0;orthogonalLoop=1;jettySize=auto;html=1;" edge="1" parent="1" source="8">
                    <mxGeometry relative="1" as="geometry">
                        <mxPoint x="546" y="997" as="targetPoint"/>
                        <Array as="points">
                            <mxPoint x="546" y="997"/>
                        </Array>
                    </mxGeometry>
                </mxCell>
            </root>
        </mxGraphModel>
    </diagram>
</mxfile>